/* XPM */
static char *_c5e7c84908b424db78724f4f1a52e70i1H7EOO65ZiRbaYF[] = {
/* columns rows colors chars-per-pixel */
"100 100 88 1 ",
"  c None",
". c #17160F",
"X c #18160F",
"o c #19180F",
"O c #181710",
"+ c #1D1A13",
"@ c #211D17",
"# c #241F19",
"$ c #25211A",
"% c #2A241D",
"& c #2E281F",
"* c #2E2521",
"= c #2F2921",
"- c #312723",
"; c #332A24",
": c #382F27",
"> c #392E29",
", c #393027",
"< c #3C322B",
"1 c #3D3932",
"2 c #41352E",
"3 c #44382F",
"4 c #443730",
"5 c #463931",
"6 c #4B3C35",
"7 c #4F3F38",
"8 c #4E4037",
"9 c #4D4239",
"0 c #53433A",
"q c #58473E",
"w c #5A493F",
"e c #4D4A41",
"r c #524E44",
"t c #5D4B41",
"y c #614E45",
"u c #645146",
"i c #675248",
"p c #6A554B",
"a c #6F594E",
"s c #715A4F",
"d c #735C51",
"f c #776054",
"g c #7A6256",
"h c #7E6559",
"j c #846A5D",
"k c #896E61",
"l c #8D7163",
"z c #927567",
"x c #947768",
"c c #977A6A",
"v c #9A7B6C",
"b c #9E7F70",
"n c #9F8071",
"m c #A48474",
"M c #A98777",
"N c #AC8A7A",
"B c #B18E7D",
"V c #B4907F",
"C c #B69281",
"Z c #BB9684",
"A c #BF9987",
"S c #B89F92",
"D c #C09A87",
"F c #C49D8B",
"G c #C89F8C",
"H c #C7A08D",
"J c #C9A18E",
"K c #CBA391",
"L c #CDA897",
"P c #D1AE9E",
"I c #CDAFA1",
"U c #D3B3A4",
"Y c #D5B6A8",
"T c #D7BAAC",
"R c #D8BCAF",
"E c #D9BDB0",
"W c #DCC3B7",
"Q c #DDC4B8",
"! c #DFC8BD",
"~ c #D7CCC6",
"^ c #E3CFC6",
"/ c #E6D3CB",
"( c #EADCD5",
") c #ECDED9",
"_ c #EFE3DE",
"` c #EFE5E1",
"' c #F1E7E3",
"] c #F2E8E4",
/* pixels */
"                                                                                                    ",
"                                                                                                    ",
"                              ..o.o.XXXXXX..XXX.XXXX....XXX.XXX                                     ",
"          .XXXXX.oo.......X.....oo...XXXXX.XXXXX.XXXX...XXXXXXXX.oo.ooo.....Xoo.XXXXXXXXX           ",
"        ..XXXXXX.........X...o....Xo....O......X.XXXXX.X..OOX..X..o.....o.oo........XXXXXX..        ",
"      ..X..XXX........XXXXoo...o..XoX.X.....X.XX..Xo..Xo.XOO..............oX...o....XX..XX...       ",
"     ..X..X.........XoXoO+++O++@+++@+++++@+++@@++++++++++++++O....oo....O@+X............XX....      ",
"     ......+&==:<<<9ttttfgggggjcvbvvvvvvvvvvvvvvvvvvvvbvvbvvc9...o8rw99wrrrr91===*:==;=$O....oo     ",
"    .....+0jmNBAGGGHHHGGHHGGJHJJHKHKJJJJJJJJJJJJJJJJJJJJHHKGAtXX.$zJHU__````'~SNNNNNNNNva;.....     ",
"    ....$dAKJKJJKHGHGKKHJJJJJJJJHHKHJJJJJJJJJJJJJJJJHJJHKHHKZ6X..%nHL/]]]''''])YHKKJKJJJHn3.....    ",
"   ...ootFKHJJJJKGGKHKGGJJJJJJJJHKHJJJJGHGJJGJJJJJGJJJHKHHKHZ,...;MJY_]]']]]]]]/PHJJJJJJJJc%....    ",
"   ...o=MJHHJJJJGKHHKHHKJJJJJJJJJHJJJJJKKKJKKJKKKKKKKKKKKKGKC*...<NJ!_]]__))))_`WKKKKJKJJJHw....X   ",
"   ....<HJJJJJJJGGHKGKGKJJJJJJJJJJKKGAAAZCCNMMMbbbbbnnMNCAHHC@.o.3VL/(^WETUUUUTRUMvnnvmmVZJk$...X   ",
"   ..o.0HJJJJJJJGGACBMMmvvvvllllklklkjjjjghggdddaddasdffhkzNv+...8ADIUKHGJGGJHGJGcdaddddfjzf$...X   ",
"   ...+wHHJHACMxkhhhgdgdddddsddadddadadddddadddddddddddsasdfy+...0VjVJJJJJJJGHHGHVgdddddssdt+...X   ",
"   ..oowHJZmjffdddddddddddddddddddddddddddddddddddddddddddsf9o...6jfBJJJJHJJKGKKJFjdddddsfdu$...X   ",
"   .oXXuFmjddddddddddddddddddddddddddddddddddddddddddddddddd5O.Oo3ffnJJJJJJJHKGHHGzddddddddu$...X   ",
"   ..XOpxdddddddddddddddddddddddddddddddddddddddddddddddddds3O..+5dalFJJJJJJGKKGHHvddddddddp$..XX   ",
"   XooO9ddddddddddddddddddddddddddsddddddddddddddddddddddddd:...+0fsfNJHHJJJGHHGKFldddddddds*...X   ",
"   .XOO6ddddddddddddddddddddddddddddddddddddddddddddddddddda:...+wdsdjAJJJJJKGKKHMddddddddds$...X   ",
"   .XXo6ddddddddddddddddddddddddddddddddsdddddddddddddddddds%...+tffsflZJJHKHJKGChdddddddddd=...X   ",
"   .X.o6dddddddddddddddddddddddddddddddddddddddddddddddsddds%...$ussdddjNFGHHGAMhddddddddddd,O..X   ",
"   ....1dddddddddddddddddddddddddddddddddddddddddddddddddddp@...$idddddddjvmmvkddddddddddddd,O..X   ",
"   o...:dpyyaddddddddddddddddddddddddddddddddddddddddddddddu@...%addddddddddddddddddddddddds,...X   ",
"   ....=at66ysddddddddddddddddddddddddsdddddddsddddddddddddu@...%sdddddddddddddddddddaddddds<o..X   ",
"   ....$st66eadddddddddddddddddddddddddddddddddddddddddddddq+o..;sddfsdddddddddddddddddddddd5o..X   ",
"   ..Xo%dp99yddddsdddddddddddddddddddddddddddddddddddddddddq+...,sddsdddddddddddddddddddddsd6o..X   ",
"   X...$adppadddddddddddddddddddddddddddddddddddddddddddddd8+...2sdddddddddddddddddddddddsfd9o..X   ",
"   XXX.$udaapaasdsddddddddddddddddddddddsddddddddddddddddds6OXXo3sdsddddddddsdddfddfdddapppp4o..X   ",
"   XXX.+<2::::,55500tttuiaaafdfddddfdddffsdddddddddddddddsf6OoXo6ddfddddddfffpapuittt064<==+o...XX  ",
"   XX..XXXX.X...X...O+$%=;:,2<6980rttyiiiipdddddddddddddddd<..Xo5iitttt9996<<,:==*++o.X....o....XX  ",
"   XX...XXX.X...XX..OX........oO++@@@$$**$=================+..XX$%%$@#$+OOo.....................XX  ",
"   X......oX.o.o........X....X..oo......................................................X.....o.XX  ",
"   X......++++oo...............XXX.......X....XX.....O....OO....................o.......++$*$...XX  ",
"   X...=99wwww08863&....+OXOOOXXXXX.Xo.....O...OXO..OOOO...OOOO....O.......XooOO$$=:,338wtyi0+..XX  ",
"   ....<ddddfdfffds2....3uu00052<,=:=$++@@@+++++++++#+++O+++++#+#@@#*;;:22500wuuuippasddfdddt+...X  ",
"   X..X<ddddddddddd5....8dddddddsdaaaaaaaauytyttttttuttuytytytpaaaaassssddsdddddddddddddddddt+....  ",
"   X.Xo5ddddddddddf6....8dddddddddddddddddddddddddddddddddddddddddddddddddddddddddddddddddddtoX.X.  ",
"   XXXo6dddddddsddd6....8dddddddddddddddddddddddddddddddddddddddsddddddsddddddddddddddddddddt.X.XX  ",
"  XXXoO8ddddddddddf5...o8ddddddddddddddddddddddddddddddddddddddddddddddddddddddppipsddddddddiO..XX  ",
"  X...Otddddddddddf6....6dddddddddddddddddddddddddddddsdddddddddddddddddddddddy7666tddddddddp+o.XX  ",
"  XXX.Xtdddddddddds3....0ddddspiadddddddddddddddddddddddddddddddddddddddddddda76666qpdddddddp+o..X  ",
"  XXXXOtdddddddddda<....tddddy07qpdddddddddddddddddddddddddddddddddddddddddddy666660pdddddddi+X...  ",
"  XX.X+udddddddddda<....yddda6666eaddddddddddddddddddddddddddddddddddddddddddt66667tddddddddp+..X.  ",
"  ..X.+pddddsddddda<....tdddp66666yddddddsdddddddddddddddddddddddddddddddddddy6667tdddddddddyOX.XX  ",
"  ....+pdddddddddda<....tddddt6666yddddddddddddddddddddddddddddddsdddddddddddpt7qyddddddddddt+XXXO  ",
"  ..o.+pdddddddddda,....tddddpq76qpddddddddddddddddddddddddddddddddddddddddddddppdddddddddddqOXXXX  ",
"  ....+pddddddddddp,....tddddddpissddddddddddddddddddddddddddddddddddddddddddddddddddddddddd6XXX.X  ",
"  oX.X+idddddddddda<....rfsfdddddddddddddddddddddddddddsdddddddddddddddddddddddddddddddddddd6O...   ",
"  XX..+pddddddddddp;...+ustqpddpaddddddddddddsddsddddddddddddddddddddddddddddddddddddddddddd6O.O.   ",
"  XX..+pdddddddddfp=...@ua86ydi0epddddddddddddddddddddddddddddddddddddddddddddsddddddddddddd<...X   ",
"  ..X.+pddddddddddi=...@uaw0idi97sddddddddddddddddddddddddddddddddddddddddddddddddddddddddds<...X   ",
"  X..X+pdddddddddfi=...$udaaddaipddddddddddddddddddddddddddsddddddddddddddddddddddddddddddds,OO.X   ",
"  XX..+pddsdddddsdi=...@uddddddddddddddddddddddddddddassddddddddddddddddddddddddddddddddddds,OO.X   ",
"  XX.X+pdddddddddfi=...$udddddddddddddddddddddddddputtttippsdddddddddddddddddddddddsdddddddd,O.XX   ",
"  XX..+tddddddddddi=...@udddddddddddddsdddddddddate6666667ttpsddddddddddddddddddddddddddddds,...X   ",
"  XXoX+wdddddddddfi=o..$ufdddddddddddddddddddddat666666666667tisddddddddddddddddddddddddddds,X..X   ",
"  .XoXOwdddddddddsy$.oo$udddddddddddddddddddddst666666666666666qipdddddddddddddddddddddddddd,X.XX   ",
"  XX..+wdddddddddfy@...=pdddddddddddddddddddddi666676666666666666tpddddddddddddddddddddddddd,XX.X   ",
"  ....Owddddddddafy$...=pddddddddddddddddddddst66666666666666666669ydddddddddddddddddddddddd<XX.X   ",
"  XX..Owsddsddddddu@...;pdddddddddddddddddddda7666666666666666666667tddddddddddddddddddddddd,...X   ",
"  XX..+tfffdfddfdfu$...;pfdddddddddddddddddddy76666666666667666767768tddddddddfddfdddfdffddd<.XXX   ",
"  XX...:35134459005+..X$0rttttttttttttttttuii04444444444442<<<<22<2<<20ttwtw000000909154<441*.XXX   ",
"  .X..........oO++O...XO+###$+###########+***#+#####@#@#@#+@+@++++++@+$+$$$@++O++O+++.........XXX   ",
"  X.....XXX.X.XXX................................................................O.......X..X..XX   ",
"  XXX.X.XX....XXX.....o...........................................O............O..........XX....X   ",
"  XX.X..XXOOXXXO.o.Xo........X.....O.OO............................O......OO..OOXX....OOXOOOX..XX   ",
"  XX.XX=7077996<<4<<2<21:&&;;&&&----***---#O++++O++++O+O++##+....+$$$$$$*--->42<2<2226088808:OXXXX  ",
"   XX.X;tsdddddasdssssssssssaaaaaaaasaasaapq6464644664646466*...O;466466yasassssssssssdddddsqOoXXX  ",
"   X..O;6ysdddddddddddddddsdsdddddddddddddt76666666666666666%...+>766667idddddddddddddddddddqOXXXX  ",
"   OXoO;67uddddsdddddddddddsdddddddddddday766666666666666664%...+>666667pddddddddddddddddddd9oXXXX  ",
"   ..oO;667adddddddddddddddddddddaaaappiq7766666666666666666%...+>766660ddddddddddddddddddds6o..X   ",
"   X...=666taddddddddddddddddddpyq77767666676666666666666666@...+166666tddddddsdddssdddddddd6OooX   ",
"   X...=6666tpdddddddddddapiytq06666666664644666666666666666@...+466666idddddddddpttidddddda6o..X   ",
"   X...*66666tpddddddddiw00766666766666666>->>46666666666666@...+466666pddddddddpq667iddddda6O..X   ",
"   X...*6666667rppdddsy766666666666666666>---->6666666666674+...+266667pdddddddsq66667pddput=OX.X   ",
"   XXXX*666666666qtyyt6666666666666666666>----->666666666662+O..@466666idddddddy666666eyt966=...X   ",
"   XXXX*6666666666666666666666666666666661----->666666666664+O..#6666667pddddsy7666666666666*...X   ",
"   XX..$6666666666666666666666666666666664----->666666666662+OX.@66666667tiiyq66666666666666*...X   ",
"   XX..+6666666666666666666666666666666667>----4666676666664+OX.#666666666666666666666666665@...X   ",
"   O...#666666666666666666666666666666666664>>4664446666666>O...%667666666666666666666666666@...X   ",
"   O...@66666666666666666666666666666666666666666>-->666664*O..O@>46666666666666666666667666@...X   ",
"   O...@46666666666666666676666666666666666666662----46664-%OO..+--6666666666666666666666665@..OX   ",
"   ....@4666666666666666666666667666666666666666>----466<--%O+..#--<666666666666666666666664+...X   ",
"   X...+>446666666666666666666666666666666666666>--->66<---#....#-->66666766666666666666652-+O..X   ",
"   XO..O---->246666666666666666666666666666666666<>>466>---#..O.#-->6666666666666666544>>--%OO..X   ",
"   X..OO%------>24666666666666676444>>><466766666667666>---#O...%-->66666666664<>>;--------#O..OX   ",
"   X...O@--------->2445666666542>--------->>46666666664----#...O#---<4466644<>;------------@....X   ",
"    XXXXO*------------>>>>>>>>--*------------>><246464-----+OO.O*------>>>-;--------------%O....    ",
"    XX.XOO%*-----------------------------------------------#.O.O%------------------------%+...O.    ",
"     ..X..++%%%*------------------------------------------;+.O.O#-----------------;-***#@...O..     ",
"     .........O+@@#########%*#%***-------------------------+...O*---------*-*%%###+++OOX......O     ",
"      OXOO.O..O.....OOOOOOOOXOOOO++++@@#%#*%*%%%%*%***%****O...X###@#@@+O+OOOOOOO.O..X..XXXX.X      ",
"       XOO..................XXXO.O.OO.OOOOOOOO.O....OO..OO.....XOOO.OO.OO.OOO.O..........XXX.       ",
"         OOO.................XXX...OO.O..................O....X....O.......OOO.O......XX..X         ",
"            .O..O...O...X.X..XXX.........O.................O..XX.......O..........O.XXXX            ",
"                           XXXXXXXXXXXXXXXXXX..XXXX..OXXX..XXXXXOOOOOOOOOOOOOOOO                    ",
"                                         XXXXX..XXXX..XXXX..XXX                                     ",
"                                                                                                    ",
"                                                                                                    "
};